DataRate=1500.000000
DataType=double
version=3
OpenSimVersion=4.3-2021-08-27-4bc7ad9
endheader
time	f1_1	f1_2	f1_3	p1_1	p1_2	p1_3	m1_1	m1_2	m1_3	f2_1	f2_2	f2_3	p2_1	p2_2	p2_3	m2_1	m2_2	m2_3	f3_1	f3_2	f3_3	p3_1	p3_2	p3_3	m3_1	m3_2	m3_3
2.396666666666667	-24.12453257753168	-27.4432347653864	534.3626886596579	-259.0899946689606	398.0210380554199	1.304700020700693	61379.18245022849	-44511.26235488067	2286.098606507135	0	0	-0	251.3170061707497	231.415009777993	1.697000026702881	0	0	-0	0	0	-0	949.9620513916016	396.987003326416	4.582600176334381	0	0	-0
2.397333333333333	-23.14797784020128	-28.14846558343069	534.8993825158224	-259.0899946689606	398.0210380554199	1.304700020700693	61206.56176077436	-44462.57785981927	2430.864384852156	0	0	-0	251.3170061707497	231.415009777993	1.697000026702881	0	0	-0	0	0	-0	949.9620513916016	396.987003326416	4.582600176334381	0	0	-0
2.398	-23.44313130372524	-28.06027824368885	536.6938616507384	-259.0899946689606	398.0210380554199	1.304700020700693	61144.5394550438	-44208.47542820794	2446.503163865823	0	0	-0	251.3170061707497	231.415009777993	1.697000026702881	0	0	-0	0	0	-0	949.9620513916016	396.987003326416	4.582600176334381	0	0	-0
2.398666666666667	-22.81330789082511	-27.67708026855453	537.4156899761514	-259.0899946689606	398.0210380554199	1.304700020700693	61978.35383883716	-43835.68403579716	2813.118667835603	0	0	-0	251.3170061707497	231.415009777993	1.697000026702881	0	0	-0	0	0	-0	949.9620513916016	396.987003326416	4.582600176334381	0	0	-0
2.399333333333333	-22.73083578628074	-27.94096795563277	537.220801081696	-259.0899946689606	398.0210380554199	1.304700020700693	61879.70785982645	-43797.62750858751	2468.767733894006	0	0	-0	251.3170061707497	231.415009777993	1.697000026702881	0	0	-0	0	0	-0	949.9620513916016	396.987003326416	4.582600176334381	0	0	-0
2.4	-23.61240161696219	-28.62065779841526	544.2020018597667	-259.0899946689606	398.0210380554199	1.304700020700693	61973.19185834449	-43297.88047089906	2526.624202272857	0	0	-0	251.3170061707497	231.415009777993	1.697000026702881	0	0	-0	0	0	-0	949.9620513916016	396.987003326416	4.582600176334381	0	0	-0
2.400666666666667	-24.81705571357658	-28.1402609694431	531.684268669366	-259.0899946689606	398.0210380554199	1.304700020700693	61788.22992811291	-43748.48457123097	2717.063391565166	0	0	-0	251.3170061707497	231.415009777993	1.697000026702881	0	0	-0	0	0	-0	949.9620513916016	396.987003326416	4.582600176334381	0	0	-0
2.401333333333333	-24.21220783428943	-27.60657434896904	539.6579918966796	-259.0899946689606	398.0210380554199	1.304700020700693	60965.65841731885	-42989.844748542	2397.923833451394	0	0	-0	251.3170061707497	231.415009777993	1.697000026702881	0	0	-0	0	0	-0	949.9620513916016	396.987003326416	4.582600176334381	0	0	-0
2.402	-23.72175942022895	-28.6244138221235	535.959928691146	-259.0899946689606	398.0210380554199	1.304700020700693	61974.86598686357	-43152.38052061752	2410.630327745456	0	0	-0	251.3170061707497	231.415009777993	1.697000026702881	0	0	-0	0	0	-0	949.9620513916016	396.987003326416	4.582600176334381	0	0	-0
2.402666666666667	-23.65457382475898	-26.82049090455344	536.989535475111	-259.0899946689606	398.0210380554199	1.304700020700693	61386.90451982176	-42810.50595997137	2807.3860695461	0	0	-0	251.3170061707497	231.415009777993	1.697000026702881	0	0	-0	0	0	-0	949.9620513916016	396.987003326416	4.582600176334381	0	0	-0
2.403333333333333	-24.11866827037038	-28.47996422052099	537.2363808472951	-259.0899946689606	398.0210380554199	1.304700020700693	61305.63980501419	-42801.60043727463	2634.581145298837	0	0	-0	251.3170061707497	231.415009777993	1.697000026702881	0	0	-0	0	0	-0	949.9620513916016	396.987003326416	4.582600176334381	0	0	-0
2.404	-25.09849661884013	-27.60654093044832	538.9378487410403	-259.0899946689606	398.0210380554199	1.304700020700693	61845.56225525302	-42107.58786983594	2544.931708296482	0	0	-0	251.3170061707497	231.415009777993	1.697000026702881	0	0	-0	0	0	-0	949.9620513916016	396.987003326416	4.582600176334381	0	0	-0
2.404666666666667	-25.53992804178369	-28.93594456743064	535.7932695070956	-259.0899946689606	398.0210380554199	1.304700020700693	61506.73181221455	-42237.55887976394	2466.728483978871	0	0	-0	251.3170061707497	231.415009777993	1.697000026702881	0	0	-0	0	0	-0	949.9620513916016	396.987003326416	4.582600176334381	0	0	-0
2.405333333333333	-24.76966047831799	-27.92256985286661	542.3393977949058	-259.0899946689606	398.0210380554199	1.304700020700693	61484.12028904254	-41999.76921056926	2478.391811092475	0	0	-0	251.3170061707497	231.415009777993	1.697000026702881	0	0	-0	0	0	-0	949.9620513916016	396.987003326416	4.582600176334381	0	0	-0
2.406	-25.18392854520971	-27.5755691914832	538.5961095342331	-259.0899946689606	398.0210380554199	1.304700020700693	61357.28748938796	-41736.03062874277	2724.486587920237	0	0	-0	251.3170061707497	231.415009777993	1.697000026702881	0	0	-0	0	0	-0	949.9620513916016	396.987003326416	4.582600176334381	0	0	-0
2.406666666666667	-24.55862165658427	-28.24317173436989	537.9546084732921	-259.0899946689606	398.0210380554199	1.304700020700693	61755.93845704875	-41514.33639128138	2709.71810158388	0	0	-0	251.3170061707497	231.415009777993	1.697000026702881	0	0	-0	0	0	-0	949.9620513916016	396.987003326416	4.582600176334381	0	0	-0
2.407333333333333	-25.22313697738389	-27.70214243349164	538.2317821573993	-259.0899946689606	398.0210380554199	1.304700020700693	61885.52481060972	-41360.86248952986	2786.19721347416	0	0	-0	251.3170061707497	231.415009777993	1.697000026702881	0	0	-0	0	0	-0	949.9620513916016	396.987003326416	4.582600176334381	0	0	-0
2.408	-24.2661341640782	-28.33043003908766	536.5270727370738	-259.0899946689606	398.0210380554199	1.304700020700693	61646.18861379236	-41028.19854864309	2805.615716013286	0	0	-0	251.3170061707497	231.415009777993	1.697000026702881	0	0	-0	0	0	-0	949.9620513916016	396.987003326416	4.582600176334381	0	0	-0
2.408666666666667	-25.27685278210979	-28.4351509046578	541.0098673725929	-259.0899946689606	398.0210380554199	1.304700020700693	61676.65458981522	-41029.85516962725	2923.847920810483	0	0	-0	251.3170061707497	231.415009777993	1.697000026702881	0	0	-0	0	0	-0	949.9620513916016	396.987003326416	4.582600176334381	0	0	-0
2.409333333333333	-25.46266270392029	-28.1314789411229	544.6027781032444	-259.0899946689606	398.0210380554199	1.304700020700693	61064.10207182974	-40772.38936066663	2872.023729764586	0	0	-0	251.3170061707497	231.415009777993	1.697000026702881	0	0	-0	0	0	-0	949.9620513916016	396.987003326416	4.582600176334381	0	0	-0
2.41	-25.73987179810892	-27.66254612158495	542.8949464685147	-259.0899946689606	398.0210380554199	1.304700020700693	61680.68223336657	-40561.87681763119	2805.62461775207	0	0	-0	251.3170061707497	231.415009777993	1.697000026702881	0	0	-0	0	0	-0	949.9620513916016	396.987003326416	4.582600176334381	0	0	-0
2.410666666666667	-23.62779416301539	-27.91093444842303	540.8473077505573	-259.0899946689606	398.0210380554199	1.304700020700693	61544.07070764581	-40226.67987657212	3197.588404060243	0	0	-0	251.3170061707497	231.415009777993	1.697000026702881	0	0	-0	0	0	-0	949.9620513916016	396.987003326416	4.582600176334381	0	0	-0
2.411333333333333	-26.29320445837468	-25.6077633801217	539.3480371972141	-259.0899946689606	398.0210380554199	1.304700020700693	61588.27894769796	-40263.64657493616	3055.101816600982	0	0	-0	251.3170061707497	231.415009777993	1.697000026702881	0	0	-0	0	0	-0	949.9620513916016	396.987003326416	4.582600176334381	0	0	-0
2.412	-26.04104134441977	-27.60730197479423	537.4203577385889	-259.0899946689606	398.0210380554199	1.304700020700693	61956.49397011281	-39824.60540346579	2545.35245776508	0	0	-0	251.3170061707497	231.415009777993	1.697000026702881	0	0	-0	0	0	-0	949.9620513916016	396.987003326416	4.582600176334381	0	0	-0
2.412666666666667	-25.44618721748428	-28.34623122198261	542.444828548324	-259.0899946689606	398.0210380554199	1.304700020700693	61671.56766207618	-39466.59312934856	2879.376953279316	0	0	-0	251.3170061707497	231.415009777993	1.697000026702881	0	0	-0	0	0	-0	949.9620513916016	396.987003326416	4.582600176334381	0	0	-0
